<svg width="850" height="700" viewBox="0 0 850 700" fill="none" xmlns="http://www.w3.org/2000/svg">
<path opacity="0.1" d="M234.627 685.901C183.49 685.901 142.036 675.541 142.036 662.761C142.036 649.982 183.49 639.622 234.627 639.622C285.763 639.622 327.217 649.982 327.217 662.761C327.217 675.541 285.763 685.901 234.627 685.901Z" fill="#1525B5"/>
<path d="M218.252 668.916C218.252 668.916 226.631 611.207 201.46 573.225C190.781 557.362 185.54 538.464 186.524 519.369C187.058 510.308 188.423 501.316 190.602 492.505" stroke="#535461" stroke-width="2" stroke-miterlimit="10"/>
<path d="M174.819 468.454C175.786 475.24 190.898 493.16 190.898 493.16C190.898 493.16 200.341 471.715 199.398 464.93C199.193 463.293 198.665 461.713 197.843 460.283C197.021 458.853 195.923 457.601 194.611 456.6C193.3 455.599 191.802 454.869 190.206 454.453C188.609 454.038 186.945 453.944 185.312 454.178C183.679 454.413 182.109 454.97 180.693 455.817C179.278 456.665 178.046 457.786 177.069 459.115C176.092 460.445 175.39 461.955 175.004 463.558C174.617 465.162 174.554 466.826 174.819 468.454Z" fill="#1525B5"/>
<path d="M159.883 508.954C164.392 514.118 186.82 520.944 186.82 520.944C186.82 520.944 183.11 497.764 178.609 492.633C177.537 491.404 176.234 490.398 174.773 489.672C173.313 488.946 171.724 488.515 170.097 488.404C168.469 488.292 166.836 488.502 165.29 489.021C163.744 489.54 162.316 490.359 161.086 491.43C159.857 492.501 158.85 493.804 158.124 495.264C157.398 496.724 156.967 498.312 156.855 499.939C156.744 501.566 156.953 503.198 157.473 504.744C157.992 506.289 158.811 507.717 159.883 508.946V508.954Z" fill="#1525B5"/>
<path d="M169.957 573.057C176.458 575.247 199.27 569.86 199.27 569.86C199.27 569.86 184.382 551.748 177.881 549.566C174.819 548.713 171.546 549.066 168.737 550.552C165.928 552.039 163.796 554.546 162.78 557.557C161.764 560.568 161.943 563.854 163.278 566.737C164.613 569.621 167.004 571.883 169.957 573.057Z" fill="#1525B5"/>
<path d="M188.539 619.847C194.576 623.101 217.972 621.606 217.972 621.606C217.972 621.606 206.362 601.248 200.325 597.995C197.426 596.433 194.025 596.085 190.87 597.03C189.308 597.497 187.853 598.268 186.589 599.298C185.325 600.327 184.276 601.596 183.502 603.03C182.728 604.465 182.245 606.038 182.079 607.66C181.913 609.282 182.069 610.92 182.537 612.482C183.004 614.043 183.775 615.498 184.805 616.761C185.835 618.025 187.104 619.074 188.539 619.847Z" fill="#1525B5"/>
<path d="M212.814 518.57C208.625 523.997 186.636 532.158 186.636 532.158C186.636 532.158 188.971 508.834 193.161 503.383C195.175 500.778 198.143 499.079 201.41 498.661C204.678 498.243 207.977 499.139 210.584 501.153C213.19 503.167 214.889 506.133 215.307 509.4C215.726 512.666 214.829 515.964 212.814 518.57Z" fill="#1525B5"/>
<path d="M233.827 573.561C228.23 577.485 204.795 578.684 204.795 578.684C204.795 578.684 213.99 557.103 219.619 553.203C220.955 552.24 222.469 551.553 224.073 551.181C225.677 550.808 227.339 550.759 228.963 551.035C230.586 551.311 232.139 551.907 233.529 552.789C234.92 553.67 236.122 554.82 237.064 556.17C238.006 557.52 238.67 559.044 239.018 560.653C239.365 562.262 239.389 563.924 239.088 565.543C238.787 567.161 238.167 568.703 237.263 570.08C236.36 571.456 235.192 572.64 233.827 573.561Z" fill="#1525B5"/>
<path d="M246.916 629.815C242.039 634.61 219.163 639.766 219.163 639.766C219.163 639.766 224.584 616.962 229.469 612.166C230.624 610.994 232 610.062 233.517 609.426C235.035 608.789 236.664 608.461 238.31 608.46C239.956 608.458 241.585 608.784 243.104 609.418C244.623 610.051 246 610.981 247.157 612.151C248.313 613.322 249.225 614.711 249.839 616.237C250.454 617.763 250.759 619.396 250.737 621.041C250.714 622.686 250.365 624.31 249.709 625.819C249.053 627.328 248.104 628.692 246.916 629.831V629.815Z" fill="#1525B5"/>
<path opacity="0.25" d="M174.819 468.454C175.786 475.24 190.898 493.16 190.898 493.16C190.898 493.16 200.341 471.715 199.398 464.93C199.193 463.293 198.665 461.713 197.843 460.283C197.021 458.853 195.923 457.601 194.611 456.6C193.3 455.599 191.802 454.869 190.206 454.453C188.609 454.038 186.945 453.944 185.312 454.178C183.679 454.413 182.109 454.97 180.693 455.817C179.278 456.665 178.046 457.786 177.069 459.115C176.092 460.445 175.39 461.955 175.004 463.558C174.617 465.162 174.554 466.826 174.819 468.454Z" fill="black"/>
<path opacity="0.25" d="M159.883 508.954C164.392 514.118 186.82 520.944 186.82 520.944C186.82 520.944 183.11 497.764 178.609 492.633C177.537 491.404 176.234 490.398 174.773 489.672C173.313 488.946 171.724 488.515 170.097 488.404C168.469 488.292 166.836 488.502 165.29 489.021C163.744 489.54 162.316 490.359 161.086 491.43C159.857 492.501 158.85 493.804 158.124 495.264C157.398 496.724 156.967 498.312 156.855 499.939C156.744 501.566 156.953 503.198 157.473 504.744C157.992 506.289 158.811 507.717 159.883 508.946V508.954Z" fill="black"/>
<path opacity="0.25" d="M169.957 573.057C176.458 575.247 199.27 569.86 199.27 569.86C199.27 569.86 184.382 551.748 177.881 549.566C174.819 548.713 171.546 549.066 168.737 550.552C165.928 552.039 163.796 554.546 162.78 557.557C161.764 560.568 161.943 563.854 163.278 566.737C164.613 569.621 167.004 571.883 169.957 573.057Z" fill="black"/>
<path opacity="0.25" d="M188.539 619.847C194.576 623.101 217.972 621.606 217.972 621.606C217.972 621.606 206.362 601.248 200.325 597.995C197.426 596.433 194.025 596.085 190.87 597.03C189.308 597.497 187.853 598.268 186.589 599.298C185.325 600.327 184.276 601.596 183.502 603.03C182.728 604.465 182.245 606.038 182.079 607.66C181.913 609.282 182.069 610.92 182.537 612.482C183.004 614.043 183.775 615.498 184.805 616.761C185.835 618.025 187.104 619.074 188.539 619.847Z" fill="black"/>
<path opacity="0.25" d="M212.814 518.57C208.625 523.997 186.636 532.158 186.636 532.158C186.636 532.158 188.971 508.834 193.161 503.383C195.175 500.778 198.143 499.079 201.41 498.661C204.678 498.243 207.977 499.139 210.584 501.153C213.19 503.167 214.889 506.133 215.307 509.4C215.726 512.666 214.829 515.964 212.814 518.57Z" fill="black"/>
<path opacity="0.25" d="M233.827 573.561C228.23 577.485 204.795 578.684 204.795 578.684C204.795 578.684 213.99 557.103 219.619 553.203C220.955 552.24 222.469 551.553 224.073 551.181C225.677 550.808 227.339 550.759 228.963 551.035C230.586 551.311 232.139 551.907 233.529 552.789C234.92 553.67 236.122 554.82 237.064 556.17C238.006 557.52 238.67 559.044 239.018 560.653C239.365 562.262 239.389 563.924 239.088 565.543C238.787 567.161 238.167 568.703 237.263 570.08C236.36 571.456 235.192 572.64 233.827 573.561Z" fill="black"/>
<path opacity="0.25" d="M246.916 629.815C242.039 634.61 219.163 639.766 219.163 639.766C219.163 639.766 224.584 616.962 229.469 612.166C230.624 610.994 232 610.062 233.517 609.426C235.035 608.789 236.664 608.461 238.31 608.46C239.956 608.458 241.585 608.784 243.104 609.418C244.623 610.051 246 610.981 247.157 612.151C248.313 613.322 249.225 614.711 249.839 616.237C250.454 617.763 250.759 619.396 250.737 621.041C250.714 622.686 250.365 624.31 249.709 625.819C249.053 627.328 248.104 628.692 246.916 629.831V629.815Z" fill="black"/>
<path d="M217.564 667.085C217.564 667.085 248.619 617.721 240.967 572.769C237.629 553.95 240.488 534.556 249.115 517.499C253.278 509.431 258.173 501.763 263.739 494.591" stroke="#535461" stroke-width="2" stroke-miterlimit="10"/>
<path d="M259.102 466.24C257.247 472.842 263.795 495.342 263.795 495.342C263.795 495.342 281.146 479.581 282.985 472.962C283.428 471.393 283.558 469.752 283.366 468.133C283.175 466.514 282.666 464.948 281.87 463.525C281.073 462.102 280.004 460.85 278.723 459.84C277.442 458.831 275.975 458.083 274.405 457.64C272.836 457.197 271.194 457.068 269.574 457.259C267.954 457.45 266.388 457.958 264.965 458.755C263.541 459.551 262.289 460.62 261.279 461.9C260.269 463.181 259.521 464.647 259.078 466.216L259.102 466.24Z" fill="#1525B5"/>
<path d="M229.038 497.221C231.061 503.767 248.795 519.097 248.795 519.097C248.795 519.097 254.792 496.445 252.793 489.891C251.821 486.745 249.638 484.115 246.725 482.577C243.813 481.04 240.408 480.723 237.261 481.695C234.114 482.667 231.483 484.848 229.945 487.76C228.407 490.672 228.089 494.075 229.062 497.221H229.038Z" fill="#1525B5"/>
<path d="M212.279 559.917C217.332 564.545 240.384 568.829 240.384 568.829C240.384 568.829 234.115 546.249 229.062 541.653C226.634 539.427 223.42 538.257 220.129 538.399C216.838 538.542 213.738 539.985 211.511 542.412C209.284 544.84 208.114 548.052 208.256 551.342C208.398 554.632 209.843 557.731 212.271 559.957L212.279 559.917Z" fill="#1525B5"/>
<path d="M210.28 610.208C214.477 615.627 236.474 623.74 236.474 623.74C236.474 623.74 234.075 600.425 229.917 594.966C228.935 593.634 227.697 592.511 226.275 591.664C224.853 590.818 223.276 590.264 221.637 590.035C219.998 589.806 218.329 589.907 216.729 590.333C215.13 590.758 213.632 591.498 212.322 592.511C211.013 593.523 209.92 594.787 209.106 596.228C208.293 597.669 207.776 599.258 207.585 600.902C207.395 602.545 207.535 604.21 207.998 605.799C208.461 607.387 209.237 608.867 210.28 610.152V610.208Z" fill="#1525B5"/>
<path d="M273.526 527.442C267.497 530.711 244.102 529.248 244.102 529.248C244.102 529.248 255.679 508.874 261.692 505.613C263.126 504.837 264.699 504.35 266.321 504.181C267.943 504.012 269.582 504.163 271.146 504.628C272.709 505.092 274.165 505.859 275.432 506.886C276.698 507.913 277.75 509.18 278.527 510.613C279.304 512.046 279.791 513.618 279.96 515.24C280.13 516.861 279.978 518.5 279.513 520.063C279.049 521.625 278.281 523.081 277.254 524.348C276.226 525.614 274.96 526.665 273.526 527.442Z" fill="#1525B5"/>
<path d="M270.448 586.237C263.715 587.548 241.823 579.164 241.823 579.164C241.823 579.164 258.974 563.178 265.706 561.875C267.323 561.521 268.994 561.494 270.622 561.795C272.249 562.096 273.8 562.72 275.183 563.628C276.566 564.537 277.754 565.713 278.675 567.087C279.597 568.462 280.235 570.006 280.551 571.63C280.867 573.254 280.855 574.925 280.516 576.545C280.177 578.164 279.517 579.699 278.576 581.06C277.634 582.421 276.431 583.58 275.035 584.469C273.639 585.358 272.079 585.96 270.448 586.237Z" fill="#1525B5"/>
<path d="M259.613 642.971C253.217 645.369 230.205 640.821 230.205 640.821C230.205 640.821 244.406 622.181 250.818 619.752C253.846 618.784 257.13 619.014 259.994 620.395C262.857 621.776 265.082 624.201 266.209 627.173C267.337 630.144 267.281 633.435 266.054 636.366C264.827 639.298 262.522 641.648 259.613 642.931V642.971Z" fill="#1525B5"/>
<path d="M685.618 46.2228V68.1073V610.088H279.914V68.1073V46.2228H685.618Z" fill="url(#paint0_linear)"/>
<path d="M283.473 51.1704H682.06V72.6632H283.473V51.1704Z" fill="#F6F7F9"/>
<g opacity="0.2">
<path opacity="0.2" d="M283.473 51.1704H682.06V72.6632H283.473V51.1704Z" fill="#1525B5"/>
</g>
<path d="M283.473 72.6632H682.06V605.141H283.473V72.6632Z" fill="#F6F7F9"/>
<path d="M671.577 65.5656C669.564 65.5656 667.931 63.9338 667.931 61.9208C667.931 59.9079 669.564 58.2761 671.577 58.2761C673.591 58.2761 675.224 59.9079 675.224 61.9208C675.224 63.9338 673.591 65.5656 671.577 65.5656Z" fill="#F6F7F9"/>
<path d="M661.695 65.5656C659.681 65.5656 658.049 63.9338 658.049 61.9208C658.049 59.9079 659.681 58.2761 661.695 58.2761C663.708 58.2761 665.341 59.9079 665.341 61.9208C665.341 63.9338 663.708 65.5656 661.695 65.5656Z" fill="#F6F7F9"/>
<path d="M651.812 65.5656C649.798 65.5656 648.166 63.9338 648.166 61.9208C648.166 59.9079 649.798 58.2761 651.812 58.2761C653.826 58.2761 655.458 59.9079 655.458 61.9208C655.458 63.9338 653.826 65.5656 651.812 65.5656Z" fill="#F6F7F9"/>
<g opacity="0.2">
<path opacity="0.2" d="M354.619 105.49H610.922V115.521H354.619V105.49Z" fill="#1525B5"/>
</g>
<path d="M354.619 105.49H388.672V115.521H354.619V105.49Z" fill="#1525B5"/>
<g opacity="0.2">
<path opacity="0.2" d="M321.476 162.631H644.056V278.12H321.476V162.631Z" fill="#1525B5"/>
</g>
<path d="M367.46 204.721H553.528V214.753H367.46V204.721Z" fill="#F6F7F9"/>
<path d="M456.996 225.999H553.528V236.03H456.996V225.999Z" fill="#F6F7F9"/>
<path d="M354.619 256.387H388.672V266.418H354.619V256.387Z" fill="#1525B5"/>
<path d="M605.141 238.603C595.068 238.603 586.903 230.441 586.903 220.372C586.903 210.302 595.068 202.14 605.141 202.14C615.214 202.14 623.379 210.302 623.379 220.372C623.379 230.441 615.214 238.603 605.141 238.603Z" fill="#F6F7F9"/>
<g opacity="0.2">
<path opacity="0.2" d="M321.476 310.491H644.056V425.98H321.476V310.491Z" fill="#1525B5"/>
</g>
<path d="M367.46 352.582H553.528V362.613H367.46V352.582Z" fill="#F6F7F9"/>
<path d="M456.996 373.859H553.528V383.89H456.996V373.859Z" fill="#F6F7F9"/>
<path d="M354.619 404.248H388.672V414.279H354.619V404.248Z" fill="#1525B5"/>
<path d="M605.141 386.464C595.068 386.464 586.903 378.301 586.903 368.232C586.903 358.163 595.068 350 605.141 350C615.214 350 623.379 358.163 623.379 368.232C623.379 378.301 615.214 386.464 605.141 386.464Z" fill="#F6F7F9"/>
<g opacity="0.2">
<path opacity="0.2" d="M321.476 458.351H644.056V573.84H321.476V458.351Z" fill="#1525B5"/>
</g>
<path d="M367.46 500.442H553.528V510.473H367.46V500.442Z" fill="#F6F7F9"/>
<path d="M456.996 521.719H553.528V531.75H456.996V521.719Z" fill="#F6F7F9"/>
<path d="M354.619 552.108H388.672V562.139H354.619V552.108Z" fill="#1525B5"/>
<path d="M605.141 534.324C595.068 534.324 586.903 526.161 586.903 516.092C586.903 506.023 595.068 497.86 605.141 497.86C615.214 497.86 623.379 506.023 623.379 516.092C623.379 526.161 615.214 534.324 605.141 534.324Z" fill="#F6F7F9"/>
<path d="M783.23 363.196C786.324 377.272 791.905 394.616 791.905 394.616C786.388 401.05 762.321 402.201 762.321 402.201L762.281 402.154H761.905C761.737 403.041 761.545 403.896 761.314 404.711C761.356 405.516 761.396 406.331 761.433 407.157C761.777 408.119 761.894 409.148 761.777 410.162C761.73 410.389 761.671 410.613 761.601 410.834C762.177 423.574 762.585 437.162 762.233 445.011C762.231 447.235 762.003 449.452 761.553 451.629C761.137 453.291 760.901 454.993 760.85 456.705C760.458 468.191 763.249 487.485 763.249 487.485C763.249 487.485 763.177 487.749 763.137 487.885C763.185 488.213 763.217 488.405 763.217 488.405C762.974 489.182 762.837 489.989 762.809 490.802C762.601 500.49 768.158 521.567 768.158 521.567C768.158 521.567 772.651 553.978 772.012 566.327C771.991 567.313 771.919 568.298 771.796 569.277C770.421 579.547 768.598 608.226 768.598 608.226C768.279 608.699 767.929 609.15 767.55 609.577C767.71 610.216 767.902 610.863 768.11 611.503C770.261 617.967 771.17 624.779 770.788 631.581C770.733 632.38 770.669 633.252 770.589 634.131C769.669 644.713 744.059 638.127 742.372 636.896C741.796 636.473 742.204 632.636 742.995 627.768L716.609 634.283C716.609 634.283 697.899 637.048 689 634.283C680.101 631.517 680.413 623.892 693.142 622.637C702.057 621.774 709.133 613.477 712.628 608.578C711.276 604.893 701.146 576.926 699.283 559.613C698.077 548.429 696.103 537.34 693.374 526.427L691.383 500.666L687.849 485.479L683.635 465.401C678.878 450.678 677.422 426.068 677.422 426.068L673.744 401.922C673.232 399.297 672.946 396.634 672.889 393.961C669.44 394.668 666.036 395.578 662.694 396.686C656.937 392.21 665.093 349.081 665.093 349.081C665.093 349.081 669.019 321.841 672.345 297.007C664.725 295.864 656.465 297.655 656.465 297.655L608.147 298.718C607.144 297.402 606.276 295.988 605.557 294.497H603.486C603.229 294.14 603.027 293.747 602.886 293.331L602.031 293.49C598.89 294.216 595.802 295.153 592.788 296.296C592.788 296.296 577.548 298.134 579.85 282.156C581.562 270.247 595.122 274.571 601.903 277.529L602.758 277.92C602.822 277.473 602.862 277.217 602.862 277.217L605.045 277.617C605.18 277.284 605.332 276.958 605.501 276.641C605.501 276.641 629.2 275.722 648.414 272.845C662.079 270.799 672.401 262.99 677.254 258.657C680.621 241.577 690.399 236.389 690.399 236.389C695.828 236.117 700.722 233.728 703.728 231.881C704.815 231.233 705.857 230.512 706.847 229.723L707.374 230.027L707.438 229.971C704.184 226.95 700.81 224.176 697.843 221.85L696.508 220.819C691.84 220.362 687.346 218.804 683.397 216.273C679.449 213.742 676.157 210.31 673.794 206.26C671.43 202.209 670.062 197.656 669.802 192.974C669.542 188.292 670.397 183.615 672.297 179.328C672.425 179.04 672.577 178.753 672.713 178.473C671.227 178.309 669.841 177.649 668.776 176.601C667.711 175.552 667.031 174.176 666.844 172.694C666.548 169.345 668.859 165.78 667.348 162.775C667.07 162.329 666.829 161.861 666.628 161.376C666.503 160.918 666.465 160.441 666.516 159.969C666.628 158.554 667.042 157.179 667.732 155.938C668.422 154.697 669.371 153.618 670.514 152.776C673.944 150.29 676.991 151.553 680.741 151.337C685.074 151.089 689.368 150.042 693.638 149.339C698.539 148.54 703.56 147.996 708.454 148.851C713.347 149.707 718.137 152.104 720.975 156.181C722.19 157.923 723.014 159.913 724.173 161.712C725.477 163.79 727.164 165.588 728.659 167.523C731.178 170.776 733.217 174.676 733.017 178.785C732.905 181.111 732.081 183.349 731.921 185.674C731.914 187.842 732.074 190.006 732.401 192.149C732.648 194.909 732.489 197.691 731.929 200.405C731.817 201.255 731.492 202.063 730.986 202.755C730.415 203.367 729.7 203.825 728.907 204.09C728.077 204.417 727.225 204.685 726.356 204.889C727.328 207.149 728.525 209.305 729.93 211.324L731.226 209.981L734.728 215.448L734.864 215.08C735.032 215.424 735.223 215.752 735.423 216.079L735.783 215.08C737.334 218.189 740.237 220.787 743.627 222.929C752.79 228.684 765.575 231.066 765.575 231.066C786.172 234.055 782.366 255.324 782.366 255.324C782.366 255.324 791.106 293.275 793.56 316.734C796.015 340.193 786.892 355.139 786.892 355.139L783.23 363.196ZM685.002 293.834C684.203 296.448 683.499 298.926 682.899 301.092L683.283 301.243C683.723 299.237 684.323 296.664 684.978 293.834H685.002ZM707.662 230.155L707.774 230.227L707.67 230.123L707.662 230.155ZM743.187 626.705C744.195 620.687 745.698 613.421 746.625 609.081C745.97 606.947 745.098 603.686 744.075 598.834C741.772 587.956 740.397 549.462 740.397 549.462L735.024 517.123C730.114 504.702 729.043 489.947 729.043 489.947C727.068 484.736 722.502 452.836 721.775 447.713C721.983 451.254 722.478 460.222 722.742 470.181C722.742 470.269 722.742 470.365 722.742 470.453C722.942 477.974 722.998 486.039 722.742 492.729C722.67 494.607 722.574 496.39 722.446 498.036C722.406 498.46 722.382 498.899 722.366 499.331C721.791 516.675 729.562 538.496 729.562 538.496C729.562 538.496 733.025 554.674 732.513 563.714C732.519 565.337 732.287 566.953 731.825 568.509C731.596 569.229 731.465 569.976 731.433 570.731C731.29 579.38 736.399 597.531 737.702 601.983C740.549 607.85 742.667 622.805 743.187 626.705Z" fill="url(#paint1_linear)"/>
<path d="M714.682 603.102C714.682 603.102 705.711 619.36 693.094 620.575C680.477 621.79 680.173 629.367 688.992 632.124C697.811 634.882 716.354 632.124 716.354 632.124L742.803 625.594C742.803 625.594 739.605 599.458 735.359 598.091C731.114 596.724 714.682 603.102 714.682 603.102Z" fill="#4C4C78"/>
<path d="M746.913 603.374C746.913 603.374 740.221 633.459 741.892 634.682C743.563 635.905 768.949 642.427 769.877 631.941C769.957 631.069 770.021 630.222 770.069 629.415C770.454 622.673 769.553 615.919 767.414 609.513C766.684 607.55 766.334 605.467 766.383 603.374C766.823 599.154 746.913 603.374 746.913 603.374Z" fill="#4C4C78"/>
<path d="M738.622 222.49C738.622 222.49 718.105 272.845 721.751 256.699C724.149 245.973 708.55 231.737 697.763 223.369C692.27 219.101 688.017 216.359 688.017 216.359C688.017 216.359 726.556 171.455 723.822 190.83C723.073 196.135 723.801 201.545 725.924 206.464C728.735 212.792 733.103 218.306 738.622 222.49Z" fill="#FFB9B9"/>
<path d="M607.508 294.05C605.939 293.832 604.343 293.933 602.814 294.346C599.702 295.061 596.643 295.99 593.659 297.127C593.659 297.127 578.547 298.95 580.866 283.116C582.561 271.302 595.994 275.586 602.718 278.528C605.005 279.527 606.524 280.374 606.524 280.374L607.508 294.05Z" fill="#FFB9B9"/>
<path opacity="0.1" d="M607.508 294.05C605.939 293.832 604.343 293.933 602.814 294.346C601.175 290.197 602.422 280.374 602.686 278.528C604.973 279.527 606.492 280.374 606.492 280.374L607.508 294.05Z" fill="black"/>
<path d="M607.588 278.967L603.638 278.24C603.638 278.24 601.607 291.828 604.253 295.377H608.803L607.588 278.967Z" fill="#CBCDDA"/>
<path d="M686.865 303.737C686.865 303.737 674.776 296.544 673.337 305.632C671.897 314.719 669.986 330.33 669.986 330.33L666.644 350.16L662.31 389.9L662.918 396.662C662.918 396.662 675.767 392.362 678.806 393.849C681.844 395.336 684.283 377.176 684.283 377.176L689.296 358.329L690.096 318.364L686.865 303.737Z" fill="#4C4C78"/>
<path opacity="0.1" d="M686.865 303.737C686.865 303.737 674.776 296.544 673.337 305.632C671.897 314.719 669.986 330.33 669.986 330.33L666.644 350.16L662.31 389.9L662.918 396.662C662.918 396.662 675.767 392.362 678.806 393.849C681.844 395.336 684.283 377.176 684.283 377.176L689.296 358.329L690.096 318.364L686.865 303.737Z" fill="black"/>
<path d="M680.365 256.931C680.365 256.931 667.819 271.062 648.782 273.916C629.744 276.769 606.252 277.672 606.252 277.672C606.252 277.672 600.327 288.271 608.875 299.557L656.761 298.502C656.761 298.502 667.364 296.2 675.575 298.502L680.365 256.931Z" fill="#4C4C78"/>
<path opacity="0.05" d="M680.365 256.931C680.365 256.931 667.819 271.062 648.782 273.916C629.744 276.769 606.252 277.672 606.252 277.672C606.252 277.672 600.327 288.271 608.875 299.557L656.761 298.502C656.761 298.502 667.364 296.2 675.575 298.502L680.365 256.931Z" fill="black"/>
<path opacity="0.1" d="M723.877 206.024C719.2 216.023 711.084 223.401 699.283 223.401C698.763 223.401 698.259 223.401 697.747 223.401C692.254 219.133 688.001 216.391 688.001 216.391C688.001 216.391 726.54 171.487 723.806 190.862C722.966 196.753 721.998 201.572 723.877 206.024Z" fill="black"/>
<path d="M728.659 193.124C728.661 198.932 726.939 204.61 723.713 209.44C720.486 214.27 715.899 218.035 710.532 220.259C705.165 222.483 699.258 223.066 693.559 221.935C687.861 220.803 682.626 218.008 678.516 213.902C674.407 209.796 671.607 204.565 670.472 198.869C669.337 193.173 669.917 187.268 672.139 181.901C674.361 176.535 678.125 171.948 682.955 168.719C687.785 165.491 693.465 163.768 699.275 163.766C703.135 163.757 706.959 164.509 710.527 165.981C714.095 167.453 717.338 169.615 720.068 172.343C722.798 175.07 724.963 178.31 726.437 181.877C727.911 185.443 728.666 189.265 728.659 193.124Z" fill="#FFB9B9"/>
<path d="M746.609 372.572C746.609 372.572 681.092 378.351 678.646 369.99C676.199 361.63 685.33 338.994 685.33 338.994L682.404 307.382L682.292 306.167C682.292 306.167 690.479 271.974 690.207 269.272C689.928 266.818 703.424 238.1 706.199 232.257L706.703 231.202L707.222 231.506L707.446 231.642L710.645 233.512L723.334 230.523L738.606 222.53L740.053 309.972L746.609 372.572Z" fill="#CBCDDA"/>
<path opacity="0.1" d="M712.556 232.233C712.556 232.233 708.07 231.018 706.319 235.502C705.644 237.418 704.842 239.287 703.92 241.097L702.169 251.488L698.971 267.897L696.62 340.632L697.675 353.581L703.528 343.19L704.592 275.251V266.778C704.937 259.468 706.589 252.278 709.469 245.549L710.269 243.639L715.362 237.109L712.556 232.233Z" fill="black"/>
<path d="M711.644 231.322C711.644 231.322 707.158 230.107 705.407 234.591C704.732 236.507 703.931 238.376 703.009 240.186L701.258 250.577L698.059 266.986L695.701 339.721L696.772 352.638L702.625 342.247L703.688 274.307V265.835C704.031 258.525 705.68 251.335 708.558 244.606L709.357 242.696L714.467 236.189L711.644 231.322Z" fill="#4C4C78"/>
<path opacity="0.1" d="M730.794 212.523C730.794 212.523 715.29 228.94 709.821 230.906C709.821 230.906 712.556 243.367 715.29 245.797C715.29 245.797 731.561 229.212 734.48 227.869L736.879 221.962L730.794 212.523Z" fill="black"/>
<path d="M730.794 211.643C730.794 211.643 715.29 228.061 709.821 230.027C709.821 230.027 712.556 242.488 715.29 244.918C715.29 244.918 731.561 228.332 734.48 226.99L736.879 221.083L730.794 211.643Z" fill="#CBCDDA"/>
<path opacity="0.1" d="M707.606 231.186L707.446 231.61L702.473 244.926L693.598 270.071C693.598 270.071 693.51 270.327 693.358 270.807C691.887 275.379 683.971 300.196 682.412 307.414L682.3 306.199C682.3 306.199 690.479 271.974 690.207 269.272C689.928 266.818 703.424 238.1 706.199 232.257C706.639 231.953 706.999 231.697 707.222 231.506L707.606 231.186Z" fill="black"/>
<path d="M706.703 231.17L701.569 244.926L692.686 270.071C692.686 270.071 692.598 270.327 692.446 270.807C690.887 275.682 682.004 303.497 681.252 308.589C680.453 314.184 669.259 344.381 669.259 344.381L662.862 396.694C657.161 392.25 665.261 349.536 665.261 349.536C665.261 349.536 674.384 286.169 676.543 265.092C678.702 244.014 690.399 237.78 690.399 237.78C695.781 237.508 700.626 235.142 703.608 233.312C704.686 232.668 705.72 231.952 706.703 231.17Z" fill="#4C4C78"/>
<path opacity="0.1" d="M771.076 567.694C769.709 577.877 767.878 606.3 767.878 606.3C761.481 615.891 747.353 610.704 747.353 610.704C747.353 610.704 745.842 607.81 743.563 597.02C741.284 586.229 739.909 548.087 739.909 548.087L734.584 516.028C729.722 503.719 728.659 489.132 728.659 489.132C726.532 483.537 721.359 446.578 721.359 446.578C721.359 446.578 723.494 479.708 722.158 497.181C720.823 514.653 729.147 538.216 729.147 538.216C729.147 538.216 733.864 560.253 731.425 567.086C728.987 573.92 737.51 602.191 737.51 602.191C736.751 610.4 712.58 607.051 712.58 607.051C712.58 607.051 701.178 576.51 699.203 558.118C698.007 547.031 696.049 536.039 693.342 525.22L691.375 499.691L687.873 484.648L683.691 464.746C678.981 450.151 677.534 425.764 677.534 425.764L673.888 401.834C671.489 389.996 674.584 376.121 676.663 368.831C677.558 365.69 678.262 363.764 678.262 363.764C680.357 365.25 692.35 366.961 698.555 368.408C701.961 369.187 705.464 369.456 708.949 369.207C724.629 367.969 740.142 365.133 755.245 360.742L756.844 360.263L757.164 362.996L757.915 369.519L759.243 381.084C759.243 381.084 763.352 442.781 760.922 451.142C758.491 459.502 762.593 487.581 762.593 487.581C760.314 494.247 767.454 521.343 767.454 521.343C767.454 521.343 772.444 557.519 771.076 567.694Z" fill="black"/>
<path d="M771.076 566.783C769.709 576.966 767.878 605.388 767.878 605.388C761.481 614.98 747.353 609.792 747.353 609.792C747.353 609.792 745.842 606.899 743.563 596.109C741.284 585.318 739.909 547.176 739.909 547.176L734.584 515.117C729.722 502.808 728.659 488.221 728.659 488.221C726.532 482.626 721.359 445.667 721.359 445.667C721.359 445.667 723.494 478.797 722.158 496.27C720.823 513.742 729.147 537.305 729.147 537.305C729.147 537.305 733.864 559.341 731.425 566.175C728.987 573.009 737.51 601.28 737.51 601.28C736.751 609.489 712.58 606.14 712.58 606.14C712.58 606.14 701.178 575.599 699.203 557.207C698.007 546.12 696.049 535.127 693.342 524.309L691.375 498.779L687.873 483.737L683.691 463.835C678.982 449.24 677.534 424.853 677.534 424.853L673.888 400.915C671.49 389.085 674.584 375.21 676.663 367.92C677.558 364.779 678.262 362.853 678.262 362.853C680.357 364.339 692.35 366.05 698.555 367.496C701.961 368.276 705.464 368.545 708.949 368.296C724.629 367.058 740.142 364.221 755.245 359.831L756.844 359.352L757.164 362.085L757.915 368.607L759.243 380.173C759.243 380.173 763.352 441.87 760.922 450.231C758.491 458.591 762.569 486.678 762.569 486.678C760.29 493.344 767.43 520.44 767.43 520.44C767.43 520.44 772.444 556.608 771.076 566.783Z" fill="#474463"/>
<path opacity="0.1" d="M728.659 193.124C728.661 198.248 727.318 203.283 724.765 207.727C720.191 208.526 715.322 207.647 711.86 204.618C709.517 202.555 708.006 199.734 705.991 197.344C704.689 195.869 703.286 194.486 701.793 193.204C700.823 192.235 699.706 191.426 698.483 190.806C697.866 190.49 697.183 190.321 696.49 190.313C695.796 190.305 695.11 190.457 694.485 190.758C692.886 191.661 692.31 193.667 691.399 195.274C690.694 196.646 689.489 197.696 688.033 198.207C687.308 198.435 686.529 198.425 685.809 198.18C685.09 197.934 684.468 197.465 684.035 196.841C683.043 195.13 683.771 192.46 682.1 191.421C681.661 191.205 681.206 191.02 680.741 190.87C678.59 189.895 678.342 187.009 678.166 184.659C678.07 183.5 677.822 182.19 676.847 181.566C675.871 180.943 674.6 181.254 673.44 181.286C673.097 181.294 672.754 181.264 672.417 181.198C675.146 175.043 679.907 170.012 685.904 166.947C691.902 163.883 698.77 162.972 705.359 164.366C711.948 165.761 717.858 169.376 722.098 174.607C726.339 179.838 728.652 186.367 728.651 193.1L728.659 193.124Z" fill="black"/>
<path d="M670.658 154.974C669.526 155.803 668.587 156.866 667.904 158.091C667.221 159.316 666.81 160.674 666.7 162.072C666.646 162.54 666.681 163.015 666.804 163.47C667.006 163.951 667.244 164.416 667.516 164.861C669.019 167.834 666.716 171.367 667.02 174.692C667.213 176.26 667.967 177.705 669.143 178.76C670.319 179.814 671.837 180.408 673.416 180.431C674.576 180.431 675.815 180.087 676.823 180.711C677.83 181.334 678.046 182.645 678.142 183.804C678.326 186.162 678.566 189.047 680.716 190.015C681.181 190.171 681.635 190.358 682.076 190.574C683.747 191.613 683.011 194.291 684.011 195.985C684.442 196.612 685.064 197.083 685.783 197.331C686.503 197.578 687.283 197.588 688.009 197.36C689.463 196.846 690.667 195.797 691.375 194.427C692.294 192.828 692.846 190.814 694.461 189.911C695.086 189.61 695.771 189.458 696.465 189.465C697.158 189.471 697.84 189.638 698.459 189.951C699.682 190.571 700.799 191.38 701.769 192.349C703.26 193.633 704.663 195.016 705.967 196.489C707.982 198.887 709.493 201.7 711.844 203.762C716.258 207.639 723.038 208.023 728.475 205.817C729.26 205.551 729.968 205.099 730.538 204.498C731.051 203.802 731.381 202.988 731.497 202.132C732.05 199.441 732.209 196.684 731.969 193.947C731.644 191.831 731.483 189.693 731.489 187.553C731.641 185.251 732.465 183.029 732.577 180.727C732.777 176.659 730.754 172.79 728.259 169.537C726.772 167.619 725.101 165.836 723.813 163.782C722.694 162 721.879 160.025 720.671 158.299C717.857 154.302 713.107 151.905 708.262 151.033C703.416 150.162 698.435 150.714 693.574 151.513C689.344 152.216 685.09 153.247 680.78 153.495C677.078 153.719 674.056 152.464 670.658 154.974Z" fill="#472727"/>
<path opacity="0.1" d="M706.703 231.17L701.569 244.926L692.686 270.071C692.686 270.071 692.598 270.327 692.446 270.807L703.64 233.312C704.707 232.666 705.73 231.951 706.703 231.17Z" fill="black"/>
<path d="M762.185 388.534C762.185 388.534 762.721 405.167 758.235 409.315L746.306 386.823L756.332 381.972L762.185 388.534Z" fill="#FFB9B9"/>
<path opacity="0.1" d="M790.042 394.608C784.565 401.003 760.746 402.13 760.746 402.13L737.134 364.979C737.134 364.979 731.537 361.102 721.071 343.662C710.605 326.221 710.924 312.777 711.476 302.746C712.028 292.715 718.672 263.877 718.672 263.877C719.688 257.387 734.392 216.719 734.392 216.719C735.935 219.804 738.806 222.37 742.172 224.496C751.247 230.179 763.936 232.505 763.936 232.505C784.349 235.47 780.583 256.555 780.583 256.555C780.583 256.555 780.831 338.538 779.552 348.338C778.272 358.137 790.042 394.608 790.042 394.608Z" fill="black"/>
<path d="M762.489 391.723L761.809 397.797L753.518 394.76L747.441 385.568L751.998 381.995L762.489 391.723Z" fill="#CBCDDA"/>
<path opacity="0.1" d="M762.201 368.168L757.867 368.607L716.066 372.78C709.359 373.453 702.589 373.122 695.98 371.797L676.607 367.92C677.502 364.779 678.206 362.853 678.206 362.853C680.301 364.339 692.294 366.05 698.499 367.496C701.905 368.276 705.408 368.545 708.894 368.296C724.592 367.061 740.123 364.225 755.245 359.831L757.132 362.085L762.201 368.168Z" fill="black"/>
<g opacity="0.1">
<path opacity="0.1" d="M678.686 363.085C678.545 363.015 678.409 362.937 678.277 362.853L678.237 362.965L678.686 363.085Z" fill="black"/>
<path opacity="0.1" d="M767.47 520.432C767.47 520.432 760.322 493.336 762.609 486.67C762.609 486.67 758.499 458.591 760.938 450.231C763.376 441.87 759.259 380.173 759.259 380.173L757.907 368.607L757.108 362.085L756.788 359.352C756.788 359.352 756.244 359.528 755.189 359.831L754.221 360.119L754.445 361.19L755.205 367.712L756.556 379.278C756.556 379.278 760.658 440.967 758.235 449.335C755.812 457.704 759.898 485.775 759.898 485.775C757.62 492.441 764.76 519.537 764.76 519.537C764.76 519.537 769.781 555.713 768.414 565.895C767.046 576.078 765.215 604.493 765.215 604.493C760.554 611.495 751.751 610.616 747.353 609.632C747.401 609.752 747.433 609.816 747.433 609.816C747.433 609.816 761.569 614.98 767.958 605.412C767.958 605.412 769.781 576.99 771.156 566.807C772.532 556.624 767.47 520.432 767.47 520.432Z" fill="black"/>
<path opacity="0.1" d="M731.442 566.175C733.84 559.341 729.155 537.305 729.155 537.305C729.155 537.305 720.807 513.75 722.174 496.27C722.742 488.988 722.702 478.997 722.462 469.813C720.519 457.984 718.672 444.755 718.672 444.755C718.672 444.755 720.807 477.878 719.432 495.358C718.057 512.839 726.42 536.394 726.42 536.394C726.42 536.394 731.138 558.43 728.699 565.264C726.26 572.098 734.784 600.369 734.784 600.369C734.176 606.947 718.552 606.108 712.396 605.508L712.628 606.14C712.628 606.14 736.799 609.489 737.55 601.28C737.518 601.28 729.011 573.001 731.442 566.175Z" fill="black"/>
</g>
<path d="M790.954 394.608C785.477 401.003 761.657 402.13 761.657 402.13L738.054 364.979C738.054 364.979 732.457 361.102 721.982 343.662C711.508 326.221 711.836 312.777 712.388 302.746C712.939 292.715 719.584 263.877 719.584 263.877C720.599 257.387 735.303 216.719 735.303 216.719C736.847 219.804 739.717 222.37 743.083 224.496C752.166 230.179 764.84 232.505 764.84 232.505C785.253 235.47 781.487 256.555 781.487 256.555C781.487 256.555 781.711 338.506 780.455 348.306C779.2 358.105 790.954 394.608 790.954 394.608Z" fill="#4C4C78"/>
<path opacity="0.1" d="M739.653 236.869L734.52 238.803L737.942 241.201L712.42 302.746C713.011 292.715 719.616 263.877 719.616 263.877C720.631 257.387 735.335 216.719 735.335 216.719C736.879 219.804 739.749 222.37 743.115 224.496L739.653 236.869Z" fill="black"/>
<path opacity="0.1" d="M745.802 346.507L771.916 339.785L775.338 350.384L748.656 356.882L745.802 346.507Z" fill="black"/>
<path opacity="0.1" d="M760.746 241.201C760.746 241.201 748.888 252.391 753.334 277.217C757.779 302.043 764.96 329.075 764.96 329.075L745.65 382.531C745.65 382.531 759.107 396.551 765.719 398.253L784.989 355.515C784.989 355.515 793.992 340.696 791.601 317.453C789.211 294.21 780.543 256.587 780.543 256.587C780.543 256.587 780.583 233.68 760.746 241.201Z" fill="black"/>
<path d="M761.641 241.201C761.641 241.201 749.784 252.391 754.229 277.217C758.675 302.043 765.855 329.075 765.855 329.075L746.609 382.531C746.609 382.531 760.042 396.551 766.671 398.253L785.94 355.515C785.94 355.515 794.944 340.696 792.553 317.453C790.162 294.21 781.495 256.587 781.495 256.587C781.495 256.587 781.495 233.68 761.641 241.201Z" fill="#4C4C78"/>
<path opacity="0.1" d="M747.249 383.666C747.249 383.666 762.297 404.447 761.154 410.042C760.01 415.637 755.605 412.624 755.605 412.624L749.648 404.487L744.323 389.301C744.323 389.301 744.85 382.771 747.249 383.666Z" fill="black"/>
<path opacity="0.1" d="M745.386 383.666C745.386 383.666 760.442 404.447 759.299 410.042C758.155 415.638 753.75 412.624 753.75 412.624L747.825 404.495L742.5 389.309C742.5 389.309 743.019 382.771 745.386 383.666Z" fill="black"/>
<path d="M746.306 383.666C746.306 383.666 761.353 404.447 760.21 410.042C759.067 415.638 754.661 412.624 754.661 412.624L748.736 404.495L743.411 389.309C743.411 389.309 743.931 382.771 746.306 383.666Z" fill="#474463"/>
<defs>
<linearGradient id="paint0_linear" x1="482.766" y1="610.088" x2="482.766" y2="46.2228" gradientUnits="userSpaceOnUse">
<stop stop-color="#808080" stop-opacity="0.25"/>
<stop offset="0.54" stop-color="#808080" stop-opacity="0.12"/>
<stop offset="1" stop-color="#808080" stop-opacity="0.1"/>
</linearGradient>
<linearGradient id="paint1_linear" x1="221773" y1="399766" x2="221773" y2="97398" gradientUnits="userSpaceOnUse">
<stop stop-color="#808080" stop-opacity="0.25"/>
<stop offset="0.54" stop-color="#808080" stop-opacity="0.12"/>
<stop offset="1" stop-color="#808080" stop-opacity="0.1"/>
</linearGradient>
</defs>
</svg>
